<svg xmlns="http://www.w3.org/2000/svg" width="288" height="288" viewBox="0 0 144 144">
  <rect width="144" height="144" rx="20" fill="#C7B4F7"/>
  <path d="M51 98c-14 0-25-11-25-25 0-11 7-20 17-23 2-16 15-28 31-28 13 0 25 8 29 20 10 2 18 11 18 22 0 13-10 23-23 23H84c-5 8-14 11-23 8-3 2-6 3-10 3Z" fill="none" stroke="#17202B" stroke-width="6" stroke-linecap="round" stroke-linejoin="round"/>
  <path d="M55 45c7 2 11 8 11 15M93 45c-7 2-11 8-11 15M50 72c8-4 15-2 20 4M96 72c-8-4-15-2-20 4M73 30v58" fill="none" stroke="#17202B" stroke-width="5" stroke-linecap="round"/>
</svg>
